<?xml version="1.0" encoding="utf-8"?>
<!-- Generator: Adobe Illustrator 21.0.0, SVG Export Plug-In . SVG Version: 6.00 Build 0)  -->
<svg version="1.1" id="Layer_1" xmlns="http://www.w3.org/2000/svg" xmlns:xlink="http://www.w3.org/1999/xlink" x="0px" y="0px"
	 viewBox="0 0 512 512" style="enable-background:new 0 0 512 512;" xml:space="preserve">
<style type="text/css">
	.st0{fill:#71CCE0;}
	.st1{fill:#DFDFDF;}
	.st2{fill:#4A555F;}
	.st3{fill:#FFD452;}
	.st4{fill:#F58E6F;}
	.st5{fill:#FFFFFF;}
	.st6{fill:none;}
</style>
<g>
	<g>
		<g>
			<g>
				<path class="st2" d="M33.843,186.623v299.133h39.668V186.623H33.843z M66.516,478.76H40.839V193.619h25.677V478.76z"/>
			</g>
		</g>
	</g>
	<g>
		<g>
			<rect x="49.001" y="201.78" class="st1" width="9.353" height="268.817"/>
		</g>
	</g>
	<g>
		<g>
			<g>
				<path class="st2" d="M1.168,156v37.615H505.18V156H1.168z M498.184,186.619H8.164v-23.624h490.02V186.619z"/>
			</g>
		</g>
	</g>
	<g>
		<g>
			<rect x="16.326" y="171.158" class="st1" width="473.695" height="7.3"/>
		</g>
	</g>
	<g>
		<g>
			<g>
				<path class="st2" d="M299.967,186.623v299.133h179.561V186.623H299.967z M472.532,478.76H306.963V193.619h165.569V478.76z"/>
			</g>
		</g>
	</g>
	<g>
		<g>
			<rect x="315.125" y="201.78" class="st1" width="149.246" height="268.817"/>
		</g>
	</g>
	<g>
		<g>
			<g>
				<path class="st2" d="M320.308,212.744v72.268h138.879v-72.268H320.308z M452.191,278.016H327.304V219.74h124.887V278.016z"/>
			</g>
		</g>
	</g>
	<g>
		<g>
			<g>
				<path class="st2" d="M320.308,300.383v72.267h138.879v-72.267H320.308z M452.191,365.654H327.304v-58.276h124.887V365.654z"/>
			</g>
		</g>
	</g>
	<g>
		<g>
			<g>
				<path class="st2" d="M320.308,388.021v72.267h138.879v-72.267H320.308z M452.191,453.292H327.304v-58.275h124.887V453.292z"/>
			</g>
		</g>
	</g>
	<g>
		<g>
			<g>
				<path class="st2" d="M389.748,237.169c-6.457,0-11.71,5.253-11.71,11.709c0,6.456,5.253,11.709,11.71,11.709
					c6.456,0,11.709-5.253,11.709-11.709C401.457,242.421,396.204,237.169,389.748,237.169z M389.748,253.591
					c-2.599,0-4.714-2.114-4.714-4.713s2.116-4.713,4.714-4.713c2.598,0,4.714,2.114,4.714,4.713S392.346,253.591,389.748,253.591z"
					/>
			</g>
		</g>
	</g>
	<g>
		<g>
			<g>
				<path class="st2" d="M389.748,324.807c-6.457,0-11.71,5.253-11.71,11.709c0,6.457,5.253,11.709,11.71,11.709
					c6.456,0,11.709-5.253,11.709-11.709C401.457,330.06,396.204,324.807,389.748,324.807z M389.748,341.23
					c-2.599,0-4.714-2.115-4.714-4.713c0-2.599,2.116-4.713,4.714-4.713c2.598,0,4.714,2.114,4.714,4.713
					C394.461,339.115,392.346,341.23,389.748,341.23z"/>
			</g>
		</g>
	</g>
	<g>
		<g>
			<g>
				<path class="st2" d="M389.748,412.446c-6.457,0-11.71,5.253-11.71,11.709c0,6.456,5.253,11.709,11.71,11.709
					c6.456,0,11.709-5.253,11.709-11.709C401.457,417.699,396.204,412.446,389.748,412.446z M389.748,428.868
					c-2.599,0-4.714-2.114-4.714-4.713c0-2.599,2.116-4.713,4.714-4.713c2.598,0,4.714,2.114,4.714,4.713
					C394.461,426.754,392.346,428.868,389.748,428.868z"/>
			</g>
		</g>
	</g>
	<g>
		<g>
			<g>
				<path class="st2" d="M391.663,106.044v30.034c0,14.843,12.074,26.918,26.917,26.918h2.615c14.843,0,26.917-12.075,26.917-26.918
					v-10.471L391.663,106.044z M441.117,136.077c0,10.985-8.936,19.922-19.922,19.922h-2.615c-10.985,0-19.922-8.937-19.922-19.922
					v-20.205l42.458,14.714V136.077z"/>
			</g>
		</g>
	</g>
	<g>
		<g>
			<rect x="416.39" y="73.783" class="st2" width="6.996" height="45.745"/>
		</g>
	</g>
	<g>
		<g>
			<g>
				<path class="st2" d="M419.888,45.088c-8.071,0-14.639,6.567-14.639,14.639c0,8.072,6.568,14.638,14.639,14.638
					c8.07,0,14.638-6.567,14.638-14.638C434.526,51.654,427.958,45.088,419.888,45.088z M419.888,67.369
					c-4.215,0-7.643-3.429-7.643-7.643c0-4.214,3.427-7.643,7.643-7.643c4.215,0,7.643,3.428,7.643,7.643
					C427.53,63.94,424.103,67.369,419.888,67.369z"/>
			</g>
		</g>
	</g>
	<g>
		<g>
			<g>
				<path class="st2" d="M450.474,29.139c-3.854-3.852-10.121-3.851-13.974,0l-18.196,18.195l13.974,13.974l18.196-18.196
					C454.325,39.26,454.325,32.992,450.474,29.139z M445.528,38.166l-13.25,13.249l-4.081-4.08l13.25-13.248
					c1.125-1.125,2.956-1.124,4.081-0.001C446.65,35.211,446.65,37.041,445.528,38.166z"/>
			</g>
		</g>
	</g>
	<g>
		<g>
			<g>
				<path class="st2" d="M407.497,58.142l-18.196,18.196c-3.851,3.852-3.851,10.12,0,13.974c1.868,1.866,4.348,2.894,6.987,2.894
					c2.642,0,5.122-1.028,6.987-2.894l18.196-18.195L407.497,58.142z M398.328,85.365c-1.086,1.087-2.99,1.089-4.081,0
					c-1.123-1.126-1.123-2.957,0-4.081l13.25-13.248l4.081,4.08L398.328,85.365z"/>
			</g>
		</g>
	</g>
	<g>
		<g>
			<g>
				<path class="st2" d="M403.274,29.14c-1.865-1.867-4.345-2.895-6.987-2.895c-2.639,0-5.119,1.028-6.987,2.895
					c-3.851,3.852-3.851,10.12,0,13.973l18.196,18.195l13.974-13.974L403.274,29.14z M394.247,38.166
					c-1.123-1.126-1.123-2.956,0-4.08c0.544-0.545,1.271-0.845,2.041-0.845c0.772,0,1.497,0.3,2.041,0.845l13.25,13.248l-4.081,4.08
					L394.247,38.166z"/>
			</g>
		</g>
	</g>
	<g>
		<g>
			<g>
				<path class="st2" d="M450.474,76.338l-18.196-18.195l-13.974,13.974L436.5,90.314c1.867,1.866,4.35,2.894,6.987,2.893
					c2.642,0,5.122-1.028,6.987-2.894c1.867-1.866,2.895-4.347,2.895-6.987C453.369,80.686,452.341,78.205,450.474,76.338z
					 M445.528,85.367c-1.089,1.087-2.993,1.09-4.081-0.001l-13.25-13.248l4.081-4.08l13.25,13.248
					c0.544,0.545,0.845,1.27,0.845,2.04C446.373,84.097,446.072,84.821,445.528,85.367z"/>
			</g>
		</g>
	</g>
	<g>
		<g>
			<g>
				<path class="st2" d="M107.145,135.166v3.498c0,13.416,10.915,24.331,24.331,24.331h110.361
					c13.416,0,24.331-10.915,24.331-24.331v-3.498H107.145z M241.836,156H131.476c-8.36,0-15.358-5.949-16.979-13.837h144.32
					C257.194,150.05,250.196,156,241.836,156z"/>
			</g>
		</g>
	</g>
	<g>
		<g>
			<g>
				<path class="st2" d="M238.712,46.912H134.6c-8.84,0-16.032,7.192-16.032,16.032v63.186c0,8.84,7.192,16.032,16.032,16.032
					h104.112c8.84,0,16.032-7.192,16.032-16.032V62.944C254.744,54.104,247.552,46.912,238.712,46.912z M247.748,126.13
					c0,4.983-4.054,9.036-9.036,9.036H134.6c-4.983,0-9.036-4.054-9.036-9.036V62.944c0-4.983,4.053-9.036,9.036-9.036h104.112
					c4.982,0,9.036,4.054,9.036,9.036V126.13z"/>
			</g>
		</g>
	</g>
	<g>
		<g>
			<rect x="138.004" y="66.716" class="st3" width="97.305" height="55.848"/>
		</g>
	</g>
	<g>
		<g>
			<g>
				<path class="st2" d="M134.507,63.218v62.843h104.301V63.218H134.507z M231.812,119.065h-90.309V70.214h90.309V119.065z"/>
			</g>
		</g>
	</g>
	<g>
		<g>
			<g>
				<path class="st2" d="M292.301,113.993v49.003h43.679v-49.003H292.301z M328.984,156h-29.687v-35.011h29.687V156z"/>
			</g>
		</g>
	</g>
	<g>
		<g>
			<g>
				<path class="st2" d="M337.818,123.827h-8.833v30.308h8.833c6.869,0,12.457-5.589,12.457-12.458v-5.392
					C350.275,129.416,344.687,123.827,337.818,123.827z M343.279,141.677c0,3.012-2.45,5.462-5.461,5.462h-1.838v-16.316h1.838
					c3.011,0,5.461,2.45,5.461,5.462V141.677z"/>
			</g>
		</g>
	</g>
	<g>
		<g>
			<rect y="478.76" class="st2" width="512" height="6.996"/>
		</g>
	</g>
	<g>
		<g>
			<g>
				<path class="st2" d="M66.516,186.623v183.895h240.447V186.623H66.516z M299.967,363.522H73.512V193.619h226.455V363.522z"/>
			</g>
		</g>
	</g>
	<g>
		<g>
			<rect x="81.673" y="201.78" class="st1" width="210.131" height="153.579"/>
		</g>
	</g>
</g>
</svg>
